<svg width="120" height="30" viewBox="0 0 120 30" fill="none" xmlns="http://www.w3.org/2000/svg">
<path d="M5.99681 30V18.5791H17.6529V13.7735H5.99681V5.99196H18.7649V0.985255H0V30H5.99681Z" fill="#2DCC89"/>
<path d="M21.9221 30H27.7204V8.44504H21.9221V30ZM24.8212 6.07239C26.5687 6.07239 27.9189 4.7252 27.9189 3.03619C27.9189 1.32708 26.5687 0 24.8212 0C23.0738 0 21.7235 1.32708 21.7235 3.03619C21.7235 4.7252 23.0738 6.07239 24.8212 6.07239Z" fill="#2DCC89"/>
<path d="M31.5925 30H37.3907V17.634C37.3907 14.8391 39.0388 12.9088 41.6401 12.9088C44.2414 12.9088 45.5519 14.5174 45.5519 17.3324V30H51.3502V16.1059C51.3502 11.059 48.6893 8.0429 43.9634 8.0429C40.687 8.0429 38.4431 9.61126 37.3113 12.2855H37.1921V8.44504H31.5925V30Z" fill="#2DCC89"/>
<path d="M55.0237 30H60.822V16.9906C60.822 14.5777 62.3112 12.8887 64.5154 12.8887C66.6599 12.8887 67.9506 14.256 67.9506 16.5684V30H73.5304V16.9102C73.5304 14.5174 74.98 12.8887 77.1841 12.8887C79.428 12.8887 80.6591 14.256 80.6591 16.7493V30H86.4573V15.2815C86.4573 10.9383 83.6575 8.0429 79.4875 8.0429C76.37 8.0429 73.8283 9.75201 72.8751 12.4665H72.756C72.0412 9.65147 69.8966 8.0429 66.8188 8.0429C63.9196 8.0429 61.6361 9.75201 60.7425 12.3458H60.6234V8.44504H55.0237V30Z" fill="#2DCC89"/>
<path d="M90.2302 30H96.0284V8.44504H90.2302V30ZM93.1293 6.07239C94.8767 6.07239 96.227 4.7252 96.227 3.03619C96.227 1.32708 94.8767 0 93.1293 0C91.3819 0 90.0316 1.32708 90.0316 3.03619C90.0316 4.7252 91.3819 6.07239 93.1293 6.07239Z" fill="#2DCC89"/>
<path d="M108.657 22.5201L112.708 30H119.003L112.41 19.1019L119.062 8.44504H112.748L108.975 15.7239H108.856L105.024 8.44504H98.4907L105.123 19.2627L98.451 30H104.547L108.538 22.5201H108.657Z" fill="#2DCC89"/>
</svg>
