<svg width="152" height="305" viewBox="0 0 152 305" fill="none" xmlns="http://www.w3.org/2000/svg">
<g clip-path="url(#clip0_643_2654)">
<path d="M105.991 75.3306C106.731 79.0506 107.521 82.7005 108.411 86.3505C109.281 90.0005 110.171 93.6505 111.141 97.2805L112.621 102.721L112.811 103.411C112.901 103.711 113.001 104.011 113.111 104.321C113.341 104.941 113.641 105.591 114.091 106.251C114.531 106.911 115.141 107.601 115.961 108.151C116.771 108.701 117.781 109.051 118.691 109.141C120.551 109.291 121.891 108.731 122.981 108.191C124.071 107.621 124.951 106.961 125.761 106.271C127.371 104.861 128.641 103.381 129.831 101.681L127.051 99.1805C125.691 100.211 124.191 101.261 122.751 102.031C122.041 102.421 121.321 102.751 120.691 102.921C120.081 103.121 119.541 103.091 119.531 102.991C119.521 102.951 119.631 102.951 119.681 102.961C119.741 102.961 119.731 102.931 119.681 102.791C119.641 102.661 119.561 102.441 119.501 102.181L119.271 101.081L118.101 95.6206L115.751 84.7005C114.991 81.0605 114.171 77.4105 113.381 73.8105L105.991 75.3306Z" fill="#FFC3BD"/>
<path d="M109.34 63.9002C117.87 70.4302 117.53 82.7402 117.53 82.7402L102.27 86.3902C102.27 86.3902 97.5904 74.0202 99.4904 69.4902C101.47 64.7602 104.53 60.2302 109.34 63.9002Z" fill="#263238"/>
<path d="M126.271 99.3707L131.881 93.7607L134.911 102.541C134.911 102.541 130.171 105.101 125.641 102.691L126.271 99.3707Z" fill="#FFC3BD"/>
<path d="M139.641 92.9004L140.671 99.8304L134.901 102.54L131.871 93.7604L139.641 92.9004Z" fill="#FFC3BD"/>
<path d="M59.9011 296.08L68.4811 296.92L77.4111 276.5L68.8311 275.66L59.9011 296.08Z" fill="#FFC3BD"/>
<path d="M4.62047 265.89L11.0705 271.94L24.9805 256.65L18.5405 250.59L4.62047 265.89Z" fill="#FFC3BD"/>
<path d="M14.041 269.03L9.20103 260.3C9.02103 259.98 8.66102 259.85 8.33102 259.97L0.871026 262.81C0.101027 263.1 -0.238976 264.1 0.181024 264.82C1.92102 267.83 2.91102 269.2 5.04102 273.04C6.35102 275.4 8.90102 280.82 10.711 284.08C12.481 287.27 15.841 285.72 15.381 284.21C13.311 277.4 13.701 273.6 14.281 270.6C14.391 270.06 14.301 269.5 14.041 269.03Z" fill="#263238"/>
<path d="M69.6205 294.271H59.0805C58.7005 294.271 58.3504 294.541 58.2504 294.911L55.9604 303.251C55.7204 304.111 56.3604 304.911 57.2504 304.921C60.9604 304.951 62.7204 304.941 67.3604 304.941C70.2104 304.941 77.5905 304.941 81.5205 304.941C85.3705 304.941 86.1805 301.051 84.5805 300.691C77.4405 299.111 73.3204 296.931 71.1104 294.851C70.7104 294.471 70.1805 294.271 69.6205 294.271Z" fill="#263238"/>
<path opacity="0.2" d="M77.4004 276.5L72.8004 287.03H63.8504L68.8204 275.66L77.4004 276.5Z" fill="black"/>
<path opacity="0.2" d="M18.5305 250.601L24.9805 256.651L17.8005 264.531L11.3605 258.481L18.5305 250.601Z" fill="black"/>
<path d="M106.761 62.6405C106.761 62.6405 110.621 64.3405 97.6808 115.54C83.4208 114.31 68.6808 113.03 61.7408 112.43C63.6108 97.8505 64.4108 88.8305 60.0108 58.2105C60.0108 58.2105 67.6808 57.2205 75.4508 57.5205C81.5208 57.7505 86.5008 57.9905 91.7708 58.9305C98.7208 60.1705 106.761 62.6405 106.761 62.6405Z" fill="#263238"/>
<path d="M75.4403 57.2607C75.4403 57.2607 73.4003 57.3007 70.9903 57.3007C69.5403 59.5307 74.2503 69.3007 82.0303 75.6907C83.9003 69.8607 88.2803 66.6307 88.2803 66.6307L75.4403 57.2607Z" fill="white"/>
<path d="M91.7602 58.7998C91.7602 58.7998 92.6702 58.9298 94.8402 59.4298C96.2902 61.6598 98.7402 71.1898 94.4702 76.0498C92.8102 70.0498 88.2802 66.6398 88.2802 66.6398L91.7602 58.7998Z" fill="white"/>
<path d="M78.6505 39.2803C79.2305 44.6203 79.4205 54.3303 75.4405 57.5203C75.4405 57.5203 79.6905 61.8603 88.2805 66.6403C94.5305 62.3203 91.7605 58.9303 91.7605 58.9303C86.0205 57.0203 86.5505 52.6903 87.9205 48.7003L78.6505 39.2803Z" fill="#FFC3BD"/>
<path d="M88.4307 66.66C88.4307 66.66 83.1607 60.92 80.4407 62.02C77.7207 63.12 79.8207 65.09 80.0607 66.93C80.3007 68.78 79.0007 73.7 82.6507 72.42C86.3007 71.15 88.4307 66.66 88.4307 66.66Z" fill="#2DCC89"/>
<path d="M88.6408 66.5504C88.6408 66.5504 91.1308 62.1504 93.8208 62.7304C96.5108 63.3204 94.9108 64.8604 94.6708 66.5204C94.3608 68.6504 96.6108 72.7204 93.3608 71.5704C90.2008 70.4504 88.6408 66.5504 88.6408 66.5504Z" fill="#2DCC89"/>
<g opacity="0.2">
<path opacity="0.2" d="M90.0108 65.5903C89.9808 66.8203 89.8108 67.6703 89.5108 68.1803C88.9408 67.2703 88.6508 66.5503 88.6508 66.5503C88.6508 66.5503 89.1308 65.6903 89.9208 64.7803C89.9908 64.9803 90.0208 65.2403 90.0108 65.5903Z" fill="black"/>
<path opacity="0.2" d="M86.5109 64.8105C87.6409 65.8005 88.4209 66.6606 88.4209 66.6606C88.4209 66.6606 88.0609 67.4105 87.3909 68.3905C86.9409 68.0105 86.5809 67.3206 86.4209 66.1206C86.3309 65.5006 86.3809 65.0905 86.5109 64.8105Z" fill="black"/>
</g>
<path d="M88.4907 68.4703C89.2307 68.4703 89.6907 67.6603 89.7507 65.7203C89.8007 63.7903 88.3207 64.8603 88.3207 64.8603C88.3207 64.8603 86.3407 63.8303 86.6807 66.1803C86.9407 68.0003 87.7307 68.4603 88.4907 68.4703Z" fill="#2DCC89"/>
<path opacity="0.2" d="M82.4309 43.1201L87.9209 48.6901C87.5909 49.6301 87.3209 50.6001 87.1709 51.5401C84.9609 51.0201 81.7609 48.7301 81.7309 46.3601C81.7109 45.1901 82.2009 43.6501 82.4309 43.1201Z" fill="black"/>
<path d="M87.1409 21.23C87.1409 21.23 93.1209 29.54 94.1109 33.27C98.1909 35.64 99.0209 23.94 96.8509 16.71C90.1509 20.9 87.1409 21.23 87.1409 21.23Z" fill="#263238"/>
<path d="M73.9507 30.9307C76.1807 39.4607 76.9407 43.1207 82.1707 46.6907C90.0407 52.0707 100.031 47.4707 100.401 38.4407C100.731 30.3207 97.0307 17.7307 87.9007 15.9607C78.9107 14.2107 71.7207 22.4007 73.9507 30.9307Z" fill="#FFC3BD"/>
<path d="M69.3103 27.5298C69.3103 27.5298 73.6003 34.4698 74.1703 37.4898C77.2803 39.6098 78.5903 30.3498 77.2803 24.4798C75.8603 19.3098 69.3103 27.5298 69.3103 27.5298Z" fill="#263238"/>
<path d="M71.021 22.6903C72.261 23.6303 73.571 20.1603 72.331 17.5003C74.701 17.6503 77.551 16.2403 76.951 13.9503C81.621 15.5103 83.351 10.7603 82.811 7.48027C82.161 3.51027 78.681 2.63027 76.631 3.68027C76.591 1.89027 72.111 -1.83973 70.391 1.08027C67.201 -0.0497317 62.061 0.300268 62.161 4.22027C60.051 4.29027 53.831 6.67027 56.121 12.2703C53.371 12.4303 51.891 15.9303 53.411 18.5603C49.891 20.6203 51.191 24.2103 52.531 25.4603C51.261 28.1003 55.121 32.0203 57.161 31.5503C58.721 33.9503 61.111 35.7403 62.681 33.7003C65.721 35.9103 69.121 33.1103 68.351 30.9403C71.811 30.3903 75.281 24.7103 71.021 22.6903Z" fill="#263238"/>
<path d="M65.9405 14.3005C63.7005 18.0405 63.8905 22.2705 66.3605 23.7505C68.8305 25.2305 72.6504 23.4005 74.8904 19.6605C77.1304 15.9205 76.9405 11.6905 74.4705 10.2105C72.0005 8.73045 68.1805 10.5605 65.9405 14.3005Z" fill="#2DCC89"/>
<path d="M86.7408 20.1899C86.8808 21.2599 89.8308 20.9899 90.6808 19.0999C91.9008 20.3799 94.7708 21.0399 95.7508 19.6499C97.4108 22.7699 100.731 21.9499 101.601 20.4499C102.471 18.9499 103.031 16.1899 101.311 15.6499C102.311 14.7799 102.011 10.7399 99.3908 11.2399C98.2908 9.07993 95.2708 6.62993 93.0808 8.53993C91.8908 7.49993 87.1008 5.45993 85.1408 9.27993C83.5408 7.95993 80.7208 8.85994 80.0408 10.8799C76.9208 10.0699 75.5808 12.4299 75.5908 13.6999C73.3808 14.2999 73.2308 18.1199 74.6208 18.9399C74.1008 20.8699 74.3708 22.9399 76.4108 22.7699C76.8008 25.3599 80.2808 25.7699 81.1008 24.3499C83.3008 25.8299 87.9108 23.3099 86.7408 20.1899Z" fill="#263238"/>
<path d="M92.001 12.8402C89.471 9.3402 80.241 7.8802 72.251 13.1302C65.051 17.8602 65.521 28.8402 71.241 28.2602C76.961 27.6802 82.631 20.9602 82.631 20.9602L92.001 12.8402Z" fill="#263238"/>
<path d="M73.2508 38.6306C74.0908 40.2506 75.6008 41.3406 77.0408 41.7706C79.2008 42.4206 80.3308 40.5006 79.7708 38.4306C79.2608 36.5706 77.5308 33.9906 75.3408 34.2506C73.1708 34.5006 72.2908 36.7806 73.2508 38.6306Z" fill="#FFC3BD"/>
<path d="M97.6803 115.541C97.6803 115.541 109.84 169.341 101.72 207.261C96.2803 232.661 76.6703 283.981 76.6703 283.981L61.3403 283.591C61.3403 283.591 76.1803 229.741 79.2503 208.561C84.5003 172.331 71.3503 113.271 71.3503 113.271L97.6803 115.541Z" fill="#2DCC89"/>
<path opacity="0.2" d="M83.6606 126.4L75.9906 138.49C77.9406 151.03 79.8806 166.71 80.3806 181.8C91.1606 162.5 86.0506 136.62 83.6606 126.4Z" fill="black"/>
<path d="M78.8403 284.771L59.9003 284.291L60.9903 278.471L80.3203 279.381L78.8403 284.771Z" fill="#263238"/>
<path d="M89.8203 114.961C89.8203 114.961 82.6903 172.011 67.2203 203.161C54.7303 228.321 21.4003 264.131 21.4003 264.131L12.8803 255.351C12.8803 255.351 35.3903 216.431 44.6803 199.721C67.4403 158.741 48.8403 127.471 61.7403 112.431L89.8203 114.961Z" fill="#2DCC89"/>
<path d="M22.2611 265.31L11.2611 254.59L14.911 249.63L26.5811 261.27L22.2611 265.31Z" fill="#263238"/>
<path d="M61.3808 110.271L59.4808 113.351C59.3308 113.591 59.6108 113.871 60.0208 113.901L97.7208 117.161C98.0408 117.191 98.3308 117.051 98.3608 116.851L98.9608 113.661C99.0008 113.441 98.7408 113.231 98.3808 113.201L61.9808 110.051C61.7208 110.031 61.4808 110.121 61.3808 110.271Z" fill="#2DCC89"/>
<path opacity="0.5" d="M61.3808 110.271L59.4808 113.351C59.3308 113.591 59.6108 113.871 60.0208 113.901L97.7208 117.161C98.0408 117.191 98.3308 117.051 98.3608 116.851L98.9608 113.661C99.0008 113.441 98.7408 113.231 98.3808 113.201L61.9808 110.051C61.7208 110.031 61.4808 110.121 61.3808 110.271Z" fill="white"/>
<path d="M65.9207 114.76L64.9507 114.68C64.7607 114.66 64.6207 114.55 64.6407 114.43L65.4607 110.29C65.4807 110.17 65.6607 110.08 65.8607 110.1L66.8307 110.18C67.0207 110.2 67.1607 110.31 67.1407 110.43L66.3207 114.57C66.2907 114.7 66.1107 114.78 65.9207 114.76Z" fill="#2DCC89"/>
<path d="M94.9509 117.27L93.981 117.19C93.791 117.17 93.6509 117.06 93.6709 116.94L94.4909 112.8C94.5109 112.68 94.691 112.59 94.891 112.61L95.8609 112.69C96.0509 112.71 96.1909 112.82 96.1709 112.94L95.3509 117.08C95.3209 117.21 95.1409 117.29 94.9509 117.27Z" fill="#2DCC89"/>
<path d="M80.4304 116.02L79.4604 115.94C79.2704 115.92 79.1304 115.81 79.1504 115.69L79.9704 111.55C79.9904 111.43 80.1704 111.34 80.3704 111.36L81.3404 111.44C81.5304 111.46 81.6704 111.57 81.6504 111.69L80.8304 115.83C80.8104 115.95 80.6304 116.04 80.4304 116.02Z" fill="#2DCC89"/>
<path d="M88.391 30.6399C88.531 31.3399 89.011 31.8399 89.471 31.7499C89.931 31.6599 90.191 31.0199 90.051 30.3099C89.911 29.6099 89.431 29.1099 88.971 29.1999C88.511 29.2899 88.251 29.9399 88.391 30.6399Z" fill="#263238"/>
<path d="M96.341 29.0758C96.2025 28.3713 96.4636 27.7268 96.9242 27.6363C97.3848 27.5457 97.8705 28.0434 98.009 28.7479C98.1475 29.4524 97.8864 30.0968 97.4257 30.1874C96.9651 30.278 96.4795 29.7803 96.341 29.0758Z" fill="#263238"/>
<path d="M96.7303 27.7204L98.3203 26.9004C98.3203 26.9004 97.7103 28.3904 96.7303 27.7204Z" fill="#263238"/>
<path d="M93.611 30.8301C93.611 30.8301 95.401 33.6201 97.001 34.8201C96.241 35.8701 94.591 35.7801 94.591 35.7801L93.611 30.8301Z" fill="#ED847E"/>
<path d="M83.6211 27.9101C83.5611 27.9101 83.5011 27.8901 83.4411 27.8601C83.2711 27.7601 83.2211 27.5501 83.3211 27.3801C84.5011 25.4201 86.4111 25.3301 86.4911 25.3301C86.6911 25.3401 86.8411 25.4701 86.8511 25.6701C86.8611 25.8601 86.7111 26.0201 86.5111 26.0301C86.4411 26.0301 84.9011 26.1201 83.9111 27.7401C83.8511 27.8501 83.7411 27.9101 83.6211 27.9101Z" fill="#263238"/>
<path d="M98.5507 25.1005C98.4907 25.1005 98.4307 25.0905 98.3807 25.0605C96.7107 24.1305 95.2907 24.8505 95.2807 24.8605C95.1107 24.9505 94.9007 24.8805 94.8107 24.7105C94.7207 24.5405 94.7907 24.3305 94.9607 24.2405C95.0307 24.2005 96.7307 23.3305 98.7307 24.4505C98.9007 24.5405 98.9607 24.7605 98.8607 24.9305C98.7907 25.0305 98.6707 25.1005 98.5507 25.1005Z" fill="#263238"/>
<path d="M58.4807 66.3799C57.8007 67.0399 57.3307 67.5499 56.8007 68.1499C56.2907 68.7299 55.8007 69.3199 55.3207 69.9099C54.3607 71.0999 53.4607 72.3199 52.6107 73.5699C50.9307 76.0899 49.4207 78.7299 48.1407 81.4799C46.8407 84.2199 45.8307 87.1099 45.0207 90.0499C44.6407 91.5299 44.2907 93.0099 44.0307 94.5199C43.6807 96.0999 43.5507 98.6699 44.7107 100.84C45.2707 101.93 46.0907 102.83 46.9507 103.5C47.8107 104.17 48.7007 104.64 49.5607 105C51.2907 105.7 52.9407 106 54.5307 106.18C57.7107 106.51 60.7107 106.39 63.6607 106.06C69.5507 105.39 75.1707 104.15 80.7607 102.43L79.8507 98.7999C77.1307 99.2499 74.3307 99.6699 71.5607 99.9599C68.7907 100.28 66.0207 100.51 63.2907 100.57C60.5707 100.61 57.8507 100.57 55.3907 100.14C54.1707 99.9199 53.0107 99.5999 52.1307 99.1699C51.2307 98.7299 50.7707 98.2199 50.6607 97.8599C50.5907 97.6699 50.5407 97.4599 50.5407 97.1399C50.5407 96.9799 50.5607 96.7999 50.5807 96.5999C50.6207 96.3899 50.6407 96.2099 50.7407 95.8499C51.0207 94.5599 51.3907 93.2899 51.7807 92.0399C52.5907 89.5199 53.6407 87.0899 54.8207 84.7199C56.0007 82.3399 57.3807 80.0599 58.9007 77.8799C59.6507 76.7799 60.4407 75.7099 61.2607 74.6799C61.6707 74.1599 62.0907 73.6599 62.5207 73.1699C62.9207 72.6899 63.4107 72.1499 63.7407 71.8099L58.4807 66.3799Z" fill="#FFC3BD"/>
<path d="M77.5706 99.3506L84.5806 95.6406L84.8906 104.921C84.8906 104.921 79.9406 105.231 77.0306 102.951L77.5706 99.3506Z" fill="#FFC3BD"/>
<path d="M89.8509 149.22L84.0709 86.4105L96.4209 76.9505L134.121 73.4805L140.671 144.54L89.8509 149.22Z" fill="#2DCC89"/>
<path opacity="0.8" d="M89.8509 149.22L84.0709 86.4105L96.4209 76.9505L134.121 73.4805L140.671 144.54L89.8509 149.22Z" fill="white"/>
<path d="M84.0709 86.4102L96.4209 76.9502L93.1809 88.2702L84.0709 86.4102Z" fill="#2DCC89"/>
<path d="M136.25 155.521C127.745 155.521 120.85 148.626 120.85 140.121C120.85 131.616 127.745 124.721 136.25 124.721C144.756 124.721 151.65 131.616 151.65 140.121C151.65 148.626 144.756 155.521 136.25 155.521Z" fill="#2DCC89"/>
<path d="M128.639 149.758C123.317 145.554 122.411 137.832 126.615 132.51C130.82 127.188 138.542 126.282 143.864 130.486C149.186 134.69 150.092 142.413 145.888 147.735C141.683 153.057 133.961 153.963 128.639 149.758Z" fill="white"/>
<path d="M128.661 139.051L134.081 138.411L133.451 132.991L137.331 132.541L137.971 137.951L143.381 137.321L143.841 141.201L138.421 141.841L139.061 147.261L135.171 147.711L134.541 142.291L129.121 142.931L128.661 139.051Z" fill="#2DCC89"/>
<path opacity="0.25" d="M91.0925 117.372C91.3455 116.039 92.0011 115.288 92.6077 115.431C93.2143 115.575 93.7611 116.49 94.1175 117.685C94.346 118.456 94.5092 119.351 94.8003 119.991C95.4232 121.363 96.4624 121.082 97.137 119.861C97.8117 118.639 98.1979 116.718 98.5053 114.824C98.9297 112.211 99.5282 108.977 100.698 108.938C101.533 108.905 102.183 110.636 102.621 112.335C103.059 114.033 103.464 115.974 104.213 116.856C105.298 118.143 106.645 116.562 107.382 114.262C108.119 111.962 108.451 109.075 108.979 106.455C109.188 105.423 109.46 104.358 109.901 103.927C110.38 103.457 110.937 103.862 111.37 104.554C111.802 105.24 112.148 106.188 112.556 106.958C114.305 110.257 117.156 109.382 118.505 105.136C118.706 104.502 118.886 103.797 119.172 103.391C119.678 102.679 120.328 103.182 120.826 103.927C121.786 105.358 122.501 107.572 123.442 109.068C124.384 110.564 125.76 111.152 126.571 109.264C127.281 107.612 127.439 104.378 128.41 103.934C129.68 103.352 130.382 108.428 131.674 108.271C132.281 108.2 132.743 106.952 133.04 105.678C133.336 104.404 133.551 102.973 134 102V129H91L91.0925 117.372Z" fill="url(#paint0_linear_643_2654)"/>
<path d="M91 118.262C91.2476 116.852 91.8894 116.058 92.4832 116.21C93.077 116.362 93.6122 117.329 93.961 118.594C94.1847 119.41 94.3444 120.356 94.6294 121.034C95.2391 122.485 96.2563 122.188 96.9167 120.896C97.5771 119.603 97.9552 117.571 98.2561 115.567C98.6715 112.802 99.2573 109.381 100.402 109.34C101.22 109.305 101.856 111.137 102.285 112.934C102.714 114.731 103.11 116.783 103.843 117.716C104.905 119.078 106.223 117.405 106.945 114.973C107.666 112.54 107.991 109.485 108.508 106.714C108.713 105.622 108.979 104.495 109.41 104.039C109.879 103.541 110.425 103.97 110.848 104.702C111.272 105.428 111.61 106.43 112.009 107.246C113.721 110.736 116.512 109.81 117.833 105.317C118.03 104.647 118.206 103.901 118.485 103.472C118.98 102.719 119.617 103.251 120.104 104.039C121.044 105.552 121.744 107.895 122.666 109.478C123.587 111.061 124.934 111.683 125.728 109.685C126.423 107.937 126.577 104.516 127.528 104.046C128.772 103.431 129.459 108.801 130.723 108.635C131.317 108.559 131.77 107.239 132.06 105.891C132.35 104.543 132.561 103.03 133 102" stroke="#2DCC89" stroke-miterlimit="10"/>
<path d="M88.8604 96.1906L87.8004 103.131L84.9004 104.921L84.5804 95.6406L88.8604 96.1906Z" fill="#FFC3BD"/>
<path d="M60.0111 58.2002C55.6011 58.9802 49.4311 71.6202 49.4311 71.6202L60.5311 81.6702C60.5311 81.6702 69.3611 72.0302 68.8911 66.2902C68.5011 61.4202 65.6211 57.2102 60.0111 58.2002Z" fill="#263238"/>
<path d="M15.7409 273.73C15.6309 273.73 15.5109 273.71 15.4009 273.67C14.3509 273.31 13.6509 271.36 13.3409 270.23C13.3209 270.16 13.3409 270.09 13.4009 270.05C13.4509 270.01 13.5309 270 13.5909 270.03C13.9109 270.2 16.7309 271.7 16.8209 272.82C16.8309 272.99 16.7909 273.24 16.5209 273.44C16.2609 273.63 16.0009 273.73 15.7409 273.73ZM13.7909 270.54C14.2809 272.1 14.9109 273.13 15.5109 273.34C15.7709 273.43 16.0309 273.37 16.3009 273.16C16.4609 273.04 16.4709 272.92 16.4609 272.85C16.4109 272.16 14.7609 271.09 13.7909 270.54Z" fill="#2DCC89"/>
<path d="M16.1807 270.98C15.1807 270.98 13.9507 270.66 13.4207 270.33C13.3707 270.3 13.3407 270.24 13.3407 270.18C13.3407 270.12 13.3807 270.06 13.4307 270.03C13.5207 269.98 15.7507 268.75 16.9507 269.18C17.2607 269.29 17.4807 269.5 17.6107 269.8C17.8007 270.27 17.5907 270.54 17.4507 270.66C17.1707 270.89 16.7107 270.98 16.1807 270.98ZM13.8907 270.18C14.8407 270.59 16.6907 270.84 17.2207 270.4C17.3107 270.33 17.3907 270.21 17.2807 269.93C17.2007 269.72 17.0507 269.58 16.8306 269.51C16.0106 269.22 14.5207 269.87 13.8907 270.18Z" fill="#2DCC89"/>
<path d="M74.3007 295.97C73.2907 295.97 72.1907 295.77 71.4207 295.6C71.3507 295.58 71.2907 295.52 71.2807 295.45C71.2707 295.38 71.3107 295.3 71.3807 295.27C71.8107 295.07 75.6407 293.3 76.6007 293.95C76.7207 294.03 76.8707 294.19 76.8507 294.49C76.8307 294.9 76.6507 295.23 76.3307 295.48C75.8507 295.85 75.1007 295.97 74.3007 295.97ZM72.0207 295.37C73.1607 295.58 75.2507 295.86 76.1207 295.21C76.3607 295.03 76.4807 294.79 76.5007 294.48C76.5107 294.34 76.4507 294.28 76.4007 294.25C75.8707 293.88 73.6107 294.67 72.0207 295.37Z" fill="#2DCC89"/>
<path d="M71.4608 295.61C71.4208 295.61 71.3808 295.6 71.3508 295.57C71.3008 295.53 71.2808 295.46 71.2908 295.4C71.3308 295.24 72.1908 291.47 74.2708 291.71C74.7908 291.77 74.9308 292.03 74.9608 292.24C75.0908 293.2 72.6808 295.14 71.5308 295.61C71.5008 295.61 71.4808 295.61 71.4608 295.61ZM74.0808 292.05C72.7508 292.05 71.9808 294.24 71.7308 295.12C72.9808 294.47 74.7008 292.9 74.6208 292.28C74.6108 292.23 74.6008 292.1 74.2408 292.05C74.1708 292.05 74.1208 292.05 74.0808 292.05Z" fill="#2DCC89"/>
<path d="M88.7811 29.28L90.3711 28.46C90.3711 28.46 89.7611 29.95 88.7811 29.28Z" fill="#263238"/>
</g>
<defs>
<linearGradient id="paint0_linear_643_2654" x1="112.5" y1="102" x2="112.5" y2="129" gradientUnits="userSpaceOnUse">
<stop stop-color="#49DA9D"/>
<stop offset="1" stop-color="#49DA9D" stop-opacity="0"/>
</linearGradient>
<clipPath id="clip0_643_2654">
<rect width="151.65" height="304.94" fill="white" transform="matrix(-1 0 0 1 151.65 0)"/>
</clipPath>
</defs>
</svg>
