<svg width="159" height="158" xmlns="http://www.w3.org/2000/svg" fill="none" viewBox="0 0 160 159">
  <path fill="#56606D" d="M31.364 92.355c.053-.03.23.144.4.392.169.248.257.483.2.518-.057.035-.227-.139-.4-.392-.173-.253-.253-.483-.2-.518ZM29.5 88.424a2.7 2.7 0 0 1 .518.968c.172.326.277.683.31 1.05a2.713 2.713 0 0 1-.519-.968 2.626 2.626 0 0 1-.309-1.05Zm-1.013-4.236a5.25 5.25 0 0 1 .4 2.144 2.7 2.7 0 0 1-.309-1.05 2.779 2.779 0 0 1-.09-1.094Zm-.153-4.356c.104.353.138.724.1 1.09.032.368-.012.74-.13 1.09a2.801 2.801 0 0 1-.1-1.094 2.625 2.625 0 0 1 .13-1.086Zm.702-4.297a2.71 2.71 0 0 1-.117 1.09c-.044.367-.16.72-.34 1.042a2.723 2.723 0 0 1 .117-1.09c.045-.366.16-.72.34-1.042Zm1.57-4.063a2.647 2.647 0 0 1-.344 1.041c-.119.35-.306.673-.55.95.044-.366.161-.72.345-1.04.248-.56.492-.982.549-.95Zm2.401-3.635c-.12.348-.31.669-.558.942a3.061 3.061 0 0 1-.737.81c-.06-.038.2-.457.554-.945.354-.488.694-.845.74-.807Zm2.931-3.227c.043.044-.257.432-.672.868-.415.436-.79.754-.832.71-.043-.044.252-.432.67-.868.42-.436.79-.757.834-.71Zm3.067-3.102c.044.044-.26.427-.684.854-.423.427-.8.74-.846.7-.046-.041.262-.427.685-.855.423-.428.801-.742.845-.7Zm2.867-3.287c.053.04-.218.45-.6.915-.382.466-.732.815-.78.772a2.69 2.69 0 0 1 .606-.915c.373-.462.726-.807.774-.772Zm2.224-3.74a2.36 2.36 0 0 1-.366 1.038c-.28.54-.58.933-.632.9a7.836 7.836 0 0 1 1-1.936l-.002-.002Zm1.058-4.209a3.817 3.817 0 0 1-.357 2.148 3.401 3.401 0 0 1 .11-1.086 3.51 3.51 0 0 1 .247-1.063Zm-.321-4.334c.193.318.303.68.322 1.05a2.3 2.3 0 0 1 .013 1.1 3.298 3.298 0 0 1-.236-1.069 3.368 3.368 0 0 1-.1-1.08Zm-1.712-3.988c.053-.034.37.345.66.881.206.31.333.666.37 1.037-.062.026-.289-.406-.572-.928a3.568 3.568 0 0 1-.458-.99Zm-3.038-3.095c.357.108.681.304.941.572.471.392.776.785.729.822-.047.038-.419-.27-.877-.649s-.833-.692-.793-.745Zm-3.962-1.769c.373-.024.745.044 1.085.2.363.084.699.258.977.506a3.528 3.528 0 0 1-1.05-.293 3.138 3.138 0 0 1-1.012-.413Zm-4.334-.196a2.176 2.176 0 0 1 1.076-.227c.37-.055.749-.016 1.1.113-.719.113-1.448.15-2.175.113Zm-4.019 1.604c-.035-.048.34-.38.877-.667.31-.209.668-.334 1.04-.362a3.656 3.656 0 0 1-.932.562c-.304.203-.636.36-.985.467Zm-2.995 3.133c.096-.36.28-.692.536-.963.375-.483.758-.8.8-.758a3.7 3.7 0 0 1-.624.9c-.364.464-.66.853-.712.821Zm-1.468 4.072a2.131 2.131 0 0 1 .082-1.1c.053-.37.2-.719.427-1.015a3.566 3.566 0 0 1-.2 1.072 3.534 3.534 0 0 1-.31 1.043Zm.519 4.293a3.476 3.476 0 0 1-.514-2.113c.155.331.26.684.309 1.046.12.344.19.703.205 1.067Zm2.211 3.731c-.048.039-.406-.3-.763-.793a2.217 2.217 0 0 1-.506-.977c.057-.031.345.362.694.845.24.276.433.588.575.925Zm3.207 2.942a2.417 2.417 0 0 1-.937-.571c-.47-.38-.8-.754-.758-.8.042-.046.432.244.9.624s.835.695.795.747Zm3.778 2.167a2.678 2.678 0 0 1-1.024-.392c-.54-.274-.95-.54-.92-.6.363.063.711.196 1.024.392.344.136.657.34.92.6Zm4.15 1.32a4.13 4.13 0 0 1-2.113-.545 7.216 7.216 0 0 1 2.114.545Zm4.341.223a2.289 2.289 0 0 1-1.085.174 2.362 2.362 0 0 1-1.094-.13c.355-.095.724-.13 1.09-.1a3.28 3.28 0 0 1 1.089.056Zm4.194-1.121c-.275.25-.609.429-.97.518-.338.16-.71.235-1.083.218a3.321 3.321 0 0 1 1-.432 3.155 3.155 0 0 1 1.053-.304Zm3.634-2.383c.044.043-.287.413-.772.784-.272.255-.6.44-.96.54-.034-.052.345-.357.82-.723.271-.246.579-.45.912-.6Zm2.84-3.296c-.1.36-.284.69-.536.963-.366.489-.728.825-.776.78-.048-.043.236-.44.593-.92.357-.479.667-.858.719-.823Zm1.887-3.923a2.3 2.3 0 0 1-.271 1.068 2.43 2.43 0 0 1-.545.955c.053-.363.166-.715.335-1.04.106-.352.268-.684.481-.983Zm.844-4.269a4.16 4.16 0 0 1-.3 2.157c-.01-.73.091-1.458.3-2.157Zm-.113-4.353c.14.341.209.708.2 1.076.069.363.058.737-.03 1.095a2.759 2.759 0 0 1-.2-1.077 2.789 2.789 0 0 1 .03-1.094Zm-.947-4.254c.202.311.338.66.4 1.025.132.345.19.713.174 1.081a2.734 2.734 0 0 1-.4-1.025 2.69 2.69 0 0 1-.174-1.08Zm-1.668-4.027c.057-.03.318.388.58.933.183.321.297.678.335 1.047a2.792 2.792 0 0 1-.545-.95 2.872 2.872 0 0 1-.37-1.03Zm-2.145-3.796c.053-.031.344.362.65.885.22.298.374.639.453 1a2.82 2.82 0 0 1-.649-.885 2.894 2.894 0 0 1-.454-1Zm-2.158-3.789c.057-.031.335.375.627.9.211.302.356.645.427 1.007a2.734 2.734 0 0 1-.627-.9 2.674 2.674 0 0 1-.427-1.007Zm-1.707-4.01c.393.62.653 1.315.763 2.041a5.285 5.285 0 0 1-.763-2.04Zm-.74-4.284a3.1 3.1 0 0 1 .192 1.076c.073.36.087.73.04 1.094a2.316 2.316 0 0 1-.263-1.069 2.387 2.387 0 0 1 .031-1.102Zm.361-4.337c.038.365.01.734-.079 1.09a3.284 3.284 0 0 1-.235 1.068 4.18 4.18 0 0 1 .314-2.158Zm1.419-4.115a3.168 3.168 0 0 1-.349 1.038 3.247 3.247 0 0 1-.492.977c.011-.372.108-.736.283-1.064.108-.357.3-.683.558-.951ZM49.64 4.81c.049.044-.238.435-.604.91-.366.477-.676.85-.73.816.107-.357.295-.684.55-.955.37-.48.742-.811.785-.771Zm3.275-2.869c.035.053-.34.362-.815.728-.475.366-.867.65-.91.6-.045-.05.292-.414.771-.785a2.41 2.41 0 0 1 .954-.543Z"/>
  <path fill="#DBF5E7" d="M18.185 112.059c-1-21.59 29.455-48.683 55.673-44.193 27.7 4.747 51.987 64.751 25.74 84.956-26.247 20.205-80.408-18.867-81.413-40.763Z"/>
  <path fill="#12CA9E" d="M120.11 86.81c-2.506 2.626 13.776 25.799 19.765 26.617 5.989.818 5.479-13.609 1.507-20.216-3.972-6.607-18.032-9.804-21.272-6.402Zm12.387-47.543c-4.782-2.575-10.116 2.39-13.243 5.334-7.173 6.989-13.243 15.082-20.049 22.439-7.54 8.094-14.53 16.186-22.256 24.1-4.414 4.415-9.2 9.2-12.139 14.715-6.62-6.438-12.323-13.427-19.68-19.13-5.335-4.045-14.163-6.988-13.979 2.76.368 12.692 11.588 26.3 19.865 34.947 3.495 3.679 8.093 7.542 13.427 7.726 6.437.368 13.06-7.358 16.922-11.588 6.805-7.357 12.323-15.634 18.577-23.175 8.093-9.933 16.37-19.681 24.279-29.8 4.966-6.257 20.599-21.706 8.276-28.328ZM39.249 88.744a1.39 1.39 0 0 0-.736.184 8.964 8.964 0 0 1-2.023-.736c.549-.367 1.469-.183 2.76.552ZM112.85 0l2.36 7.262h7.636l-6.179 4.488 2.36 7.262-6.177-4.488-6.177 4.488 2.359-7.262-6.178-4.488h7.636L112.85 0Z"/>
  <path fill="#F3B410" d="m154.204 50.813 1.278 3.932h4.137l-3.347 2.431 1.279 3.934-3.347-2.43-3.347 2.43 1.279-3.934-3.347-2.43h4.137l1.278-3.934Z"/>
  <path fill="#12CA9E" d="m84.136 25.413 1.278 3.933h4.137l-3.347 2.431 1.279 3.934-3.347-2.43-3.347 2.43 1.279-3.934-3.347-2.43h4.137l1.278-3.934Z"/>
  <path fill="#F3B410" d="m20.2 14.902 1.278 3.933h4.137l-3.347 2.431 1.28 3.934-3.348-2.43-3.347 2.43 1.28-3.934-3.348-2.43h4.137l1.278-3.934Z"/>
  <path fill="#12CA9E" d="m7.501 66.577 1.77 5.447h5.727l-4.634 3.366 1.77 5.447-4.633-3.366-4.637 3.366 1.77-5.447L0 72.024h5.727l1.774-5.447Z"/>
</svg>